<svg xmlns="http://www.w3.org/2000/svg" xmlns:xlink="http://www.w3.org/1999/xlink" id="body_2" preserveAspectRatio="xMinYMin meet" viewBox="0 0 793 1121"><defs><clipPath id="1"><path d="M0 841L0 0L0 0L595 0L595 0L595 841L595 841L0 841z" /></clipPath><clipPath id="2"><path d="M0 841.9L595.3 841.9L595.3 841.9L595.3 0L595.3 0L0 0z" /></clipPath><clipPath id="3"><path d="M0 841L595 841L595 841L595 0L595 0L0 0z" /></clipPath><clipPath id="4"><path d="M22.95 303.05L561.6 303.05L561.6 303.05L561.6 28.34998L561.6 28.34998L22.95 28.34998z" /></clipPath><clipPath id="5"><path d="M0 841L595 841L595 841L595 0L595 0L0 0z" /></clipPath><clipPath id="6"><path d="M28.35 137.4L121.9 137.4L121.9 137.4L121.9 119.4L121.9 119.4L28.35 119.4z" /></clipPath><clipPath id="7"><path d="M22.95 303.05L561.6 303.05L561.6 303.05L561.6 28.34998L561.6 28.34998L22.95 28.34998z" /></clipPath></defs><g transform="matrix(1.333333 0 0 1.333333 0 0)"><g><g clip-path="url(#1)"><g clip-path="url(#2)"><path transform="matrix(1 0 0 -1 0 841)" d="M0 828.05L595.3 828.05L595.3 828.05L595.3 829.05L595.3 829.05L0 829.05z" stroke="none" fill="#000000" fill-rule="evenodd" /></g><g clip-path="url(#3)"><path transform="matrix(1 0 0 -1 0 841)" d="M-0.2 819.95L594.8 819.95L594.8 819.95L594.8 841L594.8 841L-0.2 841z" stroke="none" fill="#FFFFFF" fill-rule="evenodd" /></g><g clip-path="url(#4)"></g><g clip-path="url(#5)"><g transform="matrix(1 0 0 1 36 118.08)"><g transform="matrix(1 0 0 1 0 0)"><image x="0" y="0" xlink:href="img_18.png" width="21" height="24" /></g></g><g transform="matrix(1 0 0 1 37 119)"><g transform="matrix(1 0 0 1 0 0)"><image x="0" y="0" xlink:href="img_19.png" width="19" height="21" /></g></g><path transform="matrix(1 0 0 -1 0 841)" d="M46.47543 716.9447L46.42303 716.9432L46.42303 716.9432L46.36908 716.9416L46.36908 716.9416L46.31668 716.937L46.31668 716.937L46.26428 716.9324L46.26428 716.9324L46.21187 716.9262L46.21187 716.9262L46.15947 716.917L46.15947 716.917L46.11015 716.9062L46.11015 716.9062L46.05928 716.8954L46.05928 716.8954L46.00842 716.8846L46.00842 716.8846L45.9591 716.8708L45.9591 716.8708L45.90978 716.8538L45.90978 716.8538L45.86046 716.8369L45.86046 716.8369L45.81268 716.82L45.81268 716.82L45.7649 716.7999L45.7649 716.7999L45.71712 716.7799L45.71712 716.7799L45.66934 716.7568L45.66934 716.7568L45.62464 716.7352L45.62464 716.7352L45.57994 716.7106L45.57994 716.7106L45.5337 716.6844L45.5337 716.6844L45.48901 716.6582L45.48901 716.6582L45.44585 716.6305L45.44585 716.6305L45.40424 716.6012L45.40424 716.6012L45.36108 716.572L45.36108 716.572L45.31947 716.5381L45.31947 716.5381L45.27939 716.5073L45.27939 716.5073L45.23932 716.4718L45.23932 716.4718L45.19924 716.4379L45.19924 716.4379L45.16071 716.4025L45.16071 716.4025L45.12218 716.3671L45.12218 716.3671L45.08519 716.3286L45.08519 716.3286L45.04974 716.2901L45.04974 716.2901L45.01274 716.25L45.01274 716.25L44.97884 716.2084L44.97884 716.2084L44.94493 716.1668L44.94493 716.1668L44.91256 716.1252L44.91256 716.1252L44.87865 716.0821L44.87865 716.0821L44.84937 716.0359L44.84937 716.0359L44.81854 715.9912L44.81854 715.9912L44.78926 715.9465L44.78926 715.9465L44.76152 715.8988L44.76152 715.8988L44.73377 715.851L44.73377 715.851L44.70757 715.8018L44.70757 715.8018L44.68137 715.7525L44.68137 715.7525L44.65671 715.7032L44.65671 715.7032L44.63359 715.6523L44.63359 715.6523L44.61201 715.6L44.61201 715.6L44.59043 715.5476L44.59043 715.5476L44.5704 715.4968L44.5704 715.4968L44.55036 715.4428L44.55036 715.4428L44.5334 715.3889L44.5334 715.3889L44.51645 715.3335L44.51645 715.3335L44.50103 715.278L44.50103 715.278L44.48717 715.221L44.48717 715.221L44.47175 715.164L44.47175 715.164L44.46096 715.1086L44.46096 715.1086L44.45017 715.05L44.45017 715.05L44.43938 714.993L44.43938 714.993L44.43322 714.933L44.43322 714.933L44.42397 714.8744L44.42397 714.8744L44.41935 714.8159L44.41935 714.8159L44.41318 714.7543L44.41318 714.7543L44.4101 714.6942L44.4101 714.6942L44.40856 714.6326L44.40856 714.6326L44.40856 714.5725L44.40856 714.5725L44.40856 714.4986L44.40856 714.4986L44.41164 714.4246L44.41164 714.4246L44.41626 714.3492L44.41626 714.3492L44.42397 714.2737L44.42397 714.2737L44.43014 714.1967L44.43014 714.1967L44.44093 714.1212L44.44093 714.1212L44.45326 714.0426L44.45326 714.0426L44.46713 713.9656L44.46713 713.9656L44.48254 713.8871L44.48254 713.8871L44.50103 713.81L44.50103 713.81L44.51799 713.7299L44.51799 713.7299L44.53803 713.6514L44.53803 713.6514L44.56115 713.5728L44.56115 713.5728L44.58426 713.4958L44.58426 713.4958L44.60738 713.4188L44.60738 713.4188L44.63513 713.3402L44.63513 713.3402L44.66441 713.2647L44.66441 713.2647L44.6937 713.1862L44.6937 713.1862L44.72452 713.1107L44.72452 713.1107L44.75535 713.0352L44.75535 713.0352L44.78926 712.9597L44.78926 712.9597L44.82471 712.8873L44.82471 712.8873L44.86016 712.8149L44.86016 712.8149L44.89869 712.7425L44.89869 712.7425L44.93722 712.6717L44.93722 712.6717L44.97576 712.6024L44.97576 712.6024L45.01891 712.5346L45.01891 712.5346L45.06207 712.4668L45.06207 712.4668L45.10523 712.4006L45.10523 712.4006L45.14838 712.339L45.14838 712.339L45.19616 712.2758L45.19616 712.2758L45.2424 712.2157L45.2424 712.2157L45.2424 711.3855L45.2424 711.3855L45.28401 711.3377L45.28401 711.3377L45.39807 711.2114L45.39807 711.2114L45.47668 711.1282L45.47668 711.1282L45.56607 711.0343L45.56607 711.0343L45.66163 710.9326L45.66163 710.9326L45.76181 710.8294L45.76181 710.8294L45.86816 710.7246L45.86816 710.7246L45.97297 710.626L45.97297 710.626L46.07624 710.5305L46.07624 710.5305L46.1271 710.4874L46.1271 710.4874L46.17488 710.4474L46.17488 710.4474L46.22266 710.4089L46.22266 710.4089L46.26582 710.375L46.26582 710.375L46.30898 710.3457L46.30898 710.3457L46.34905 710.3195L46.34905 710.3195L46.38604 710.301L46.38604 710.301L46.41841 710.2856L46.41841 710.2856L46.43382 710.2795L46.43382 710.2795L46.45078 710.2764L46.45078 710.2764L46.46464 710.2733L46.46464 710.2733L46.47543 710.2733L46.47543 710.2733L46.48776 710.2733L46.48776 710.2733L46.50164 710.2764L46.50164 710.2764L46.51551 710.2795L46.51551 710.2795L46.53246 710.2856L46.53246 710.2856L46.56483 710.301L46.56483 710.301L46.60336 710.3195L46.60336 710.3195L46.6419 710.3457L46.6419 710.3457L46.68505 710.375L46.68505 710.375L46.72975 710.4089L46.72975 710.4089L46.77753 710.4474L46.77753 710.4474L46.82531 710.4874L46.82531 710.4874L46.87617 710.5305L46.87617 710.5305L46.9779 710.626L46.9779 710.626L47.0827 710.7246L47.0827 710.7246L47.18905 710.8294L47.18905 710.8294L47.28924 710.9326L47.28924 710.9326L47.38634 711.0343L47.38634 711.0343L47.47419 711.1282L47.47419 711.1282L47.55126 711.2114L47.55126 711.2114L47.66685 711.3377L47.66685 711.3377L47.70847 711.3855L47.70847 711.3855L47.70847 712.2157L47.70847 712.2157L47.75471 712.2758L47.75471 712.2758L47.80249 712.339L47.80249 712.339L47.84565 712.4006L47.84565 712.4006L47.8888 712.4668L47.8888 712.4668L47.93196 712.5346L47.93196 712.5346L47.97357 712.6024L47.97357 712.6024L48.01365 712.6717L48.01365 712.6717L48.05218 712.7425L48.05218 712.7425L48.09071 712.8149L48.09071 712.8149L48.1277 712.8873L48.1277 712.8873L48.16161 712.9597L48.16161 712.9597L48.19552 713.0352L48.19552 713.0352L48.22789 713.1107L48.22789 713.1107L48.25717 713.1862L48.25717 713.1862L48.28645 713.2647L48.28645 713.2647L48.3142 713.3402L48.3142 713.3402L48.34194 713.4188L48.34194 713.4188L48.3666 713.4958L48.3666 713.4958L48.39126 713.5728L48.39126 713.5728L48.41284 713.6514L48.41284 713.6514L48.43288 713.7299L48.43288 713.7299L48.45137 713.81L48.45137 713.81L48.46833 713.8871L48.46833 713.8871L48.48374 713.9656L48.48374 713.9656L48.49761 714.0426L48.49761 714.0426L48.50994 714.1212L48.50994 714.1212L48.51919 714.1967L48.51919 714.1967L48.52844 714.2737L48.52844 714.2737L48.53306 714.3492L48.53306 714.3492L48.53923 714.4246L48.53923 714.4246L48.54231 714.4986L48.54231 714.4986L48.54231 714.5725L48.54231 714.5725L48.54231 714.6326L48.54231 714.6326L48.54077 714.6942L48.54077 714.6942L48.53769 714.7543L48.53769 714.7543L48.53152 714.8159L48.53152 714.8159L48.5269 714.8744L48.5269 714.8744L48.51919 714.933L48.51919 714.933L48.51148 714.993L48.51148 714.993L48.50069 715.05L48.50069 715.05L48.4899 715.1086L48.4899 715.1086L48.47757 715.164L48.47757 715.164L48.4637 715.221L48.4637 715.221L48.44983 715.278L48.44983 715.278L48.43442 715.3335L48.43442 715.3335L48.41746 715.3889L48.41746 715.3889L48.40051 715.4428L48.40051 715.4428L48.38047 715.4968L48.38047 715.4968L48.36043 715.5476L48.36043 715.5476L48.33886 715.6L48.33886 715.6L48.31728 715.6523L48.31728 715.6523L48.29416 715.7032L48.29416 715.7032L48.2695 715.7525L48.2695 715.7525L48.2433 715.8018L48.2433 715.8018L48.2171 715.851L48.2171 715.851L48.18935 715.8988L48.18935 715.8988L48.16161 715.9465L48.16161 715.9465L48.13233 715.9912L48.13233 715.9912L48.10304 716.0359L48.10304 716.0359L48.07221 716.0821L48.07221 716.0821L48.03831 716.1252L48.03831 716.1252L48.00594 716.1668L48.00594 716.1668L47.97203 716.2084L47.97203 716.2084L47.93812 716.25L47.93812 716.25L47.90267 716.2901L47.90267 716.2901L47.86568 716.3286L47.86568 716.3286L47.82869 716.3671L47.82869 716.3671L47.79016 716.4025L47.79016 716.4025L47.75162 716.4379L47.75162 716.4379L47.71309 716.4718L47.71309 716.4718L47.67148 716.5073L47.67148 716.5073L47.63141 716.5381L47.63141 716.5381L47.58979 716.572L47.58979 716.572L47.54818 716.6012L47.54818 716.6012L47.50502 716.6305L47.50502 716.6305L47.46186 716.6582L47.46186 716.6582L47.41562 716.6844L47.41562 716.6844L47.37247 716.7106L47.37247 716.7106L47.32623 716.7352L47.32623 716.7352L47.28153 716.7568L47.28153 716.7568L47.23375 716.7799L47.23375 716.7799L47.18751 716.7999L47.18751 716.7999L47.13819 716.82L47.13819 716.82L47.09195 716.8369L47.09195 716.8369L47.04109 716.8538L47.04109 716.8538L46.99177 716.8708L46.99177 716.8708L46.94244 716.8846L46.94244 716.8846L46.89312 716.8954L46.89312 716.8954L46.84072 716.9062L46.84072 716.9062L46.7914 716.917L46.7914 716.917L46.73899 716.9262L46.73899 716.9262L46.68659 716.9324L46.68659 716.9324L46.63419 716.937L46.63419 716.937L46.58178 716.9416L46.58178 716.9416L46.52784 716.9432zM48.10021 711.0437L47.36453 706.5755L47.36453 706.5755L47.65388 706.5755L47.65388 706.5755L47.93399 706.5817L47.93399 706.5817L48.20486 706.5878L48.20486 706.5878L48.46496 706.5971L48.46496 706.5971L48.71583 706.6079L48.71583 706.6079L48.95746 706.6217L48.95746 706.6217L49.18832 706.6372L49.18832 706.6372L49.41148 706.6557L49.41148 706.6557L49.62387 706.6757L49.62387 706.6757L49.82857 706.6973L49.82857 706.6973L50.02249 706.7204L50.02249 706.7204L50.20718 706.7451L50.20718 706.7451L50.38263 706.7728L50.38263 706.7728L50.54885 706.8005L50.54885 706.8005L50.70583 706.8298L50.70583 706.8298L50.85358 706.8591L50.85358 706.8591L50.9921 706.8915L50.9921 706.8915L51.12292 706.9238L51.12292 706.9238L51.24296 706.9562L51.24296 706.9562L51.35378 706.9917L51.35378 706.9917L51.45689 707.0256L51.45689 707.0256L51.54924 707.0626L51.54924 707.0626L51.63389 707.098L51.63389 707.098L51.67082 707.1165L51.67082 707.1165L51.70776 707.1335L51.70776 707.1335L51.74316 707.1535L51.74316 707.1535L51.77548 707.1704L51.77548 707.1704L51.80472 707.1889L51.80472 707.1889L51.83242 707.209L51.83242 707.209L51.85705 707.2259L51.85705 707.2259L51.88013 707.246L51.88013 707.246L51.90014 707.2629L51.90014 707.2629L51.92015 707.2814L51.92015 707.2814L51.93708 707.3015L51.93708 707.3015L51.95093 707.3184L51.95093 707.3184L51.96324 707.3369L51.96324 707.3369L51.97402 707.3554L51.97402 707.3554L51.98017 707.3724L51.98017 707.3724L51.98479 707.3908L51.98479 707.3908L51.98941 707.4093L51.98941 707.4093L51.99094 707.4263L51.99094 707.4263L51.98941 707.5126L51.98941 707.5126L51.98479 707.6267L51.98479 707.6267L51.9771 707.7654L51.9771 707.7654L51.96478 707.9226L51.96478 707.9226L51.95709 708.0104L51.95709 708.0104L51.94785 708.0983L51.94785 708.0983L51.93708 708.1908L51.93708 708.1908L51.92323 708.2848L51.92323 708.2848L51.90937 708.3819L51.90937 708.3819L51.89245 708.479L51.89245 708.479L51.87398 708.5776L51.87398 708.5776L51.85397 708.6794L51.85397 708.6794L51.82935 708.778L51.82935 708.778L51.80472 708.8766L51.80472 708.8766L51.77701 708.9768L51.77701 708.9768L51.74624 709.0724L51.74624 709.0724L51.71238 709.1679L51.71238 709.1679L51.67698 709.2589L51.67698 709.2589L51.6385 709.3483L51.6385 709.3483L51.61695 709.3914L51.61695 709.3914L51.59695 709.433L51.59695 709.433L51.57386 709.4747L51.57386 709.4747L51.55232 709.5147L51.55232 709.5147L51.52769 709.5548L51.52769 709.5548L51.50306 709.5918L51.50306 709.5918L51.47844 709.6272L51.47844 709.6272L51.45227 709.6642L51.45227 709.6642L51.42457 709.6981L51.42457 709.6981L51.39687 709.7305L51.39687 709.7305L51.36762 709.7613L51.36762 709.7613L51.33839 709.7906L51.33839 709.7906L51.3076 709.8199L51.3076 709.8199L51.27528 709.8446L51.27528 709.8446L51.24296 709.8692L51.24296 709.8692L51.20911 709.8923L51.20911 709.8923L51.17524 709.9124L51.17524 709.9124L51.13985 709.9309L51.13985 709.9309L51.06751 709.9648L51.06751 709.9648L50.9921 710.0002L50.9921 710.0002L50.91668 710.0311L50.91668 710.0311L50.83819 710.065L50.83819 710.065L50.75816 710.0958L50.75816 710.0958L50.67659 710.1251L50.67659 710.1251L50.50883 710.1852L50.50883 710.1852L50.33492 710.2438L50.33492 710.2438L50.15485 710.3023L50.15485 710.3023L49.77932 710.421L49.77932 710.421L49.58386 710.4811L49.58386 710.4811L49.38378 710.5458L49.38378 710.5458L49.17908 710.6152L49.17908 710.6152L48.97131 710.6876L48.97131 710.6876L48.86512 710.7262L48.86512 710.7262L48.75738 710.7662L48.75738 710.7662L48.64965 710.8079L48.64965 710.8079L48.54191 710.851L48.54191 710.851L48.43264 710.8973L48.43264 710.8973L48.32183 710.9435L48.32183 710.9435L48.21102 710.9928zM44.85042 711.0437L44.73957 710.9928L44.73957 710.9928L44.62872 710.9435L44.62872 710.9435L44.51941 710.8973L44.51941 710.8973L44.4101 710.851L44.4101 710.851L44.29925 710.8079L44.29925 710.8079L44.19302 710.7662L44.19302 710.7662L44.08525 710.7262L44.08525 710.7262L43.98056 710.6876L43.98056 710.6876L43.77118 710.6152L43.77118 710.6152L43.56642 710.5458L43.56642 710.5458L43.36627 710.4811L43.36627 710.4811L43.16921 710.421L43.16921 710.421L42.79509 710.3023L42.79509 710.3023L42.61496 710.2438L42.61496 710.2438L42.44099 710.1852L42.44099 710.1852L42.27318 710.1251L42.27318 710.1251L42.19312 710.0958L42.19312 710.0958L42.11306 710.065L42.11306 710.065L42.03454 710.0311L42.03454 710.0311L41.9591 710.0002L41.9591 710.0002L41.88213 709.9648L41.88213 709.9648L41.80976 709.9309L41.80976 709.9309L41.77436 709.9124L41.77436 709.9124L41.73894 709.8923L41.73894 709.8923L41.70662 709.8692L41.70662 709.8692L41.67428 709.8446L41.67428 709.8446L41.64195 709.8199L41.64195 709.8199L41.61116 709.7906L41.61116 709.7906L41.58191 709.7613L41.58191 709.7613L41.55266 709.7305L41.55266 709.7305L41.52495 709.6981L41.52495 709.6981L41.49877 709.6642L41.49877 709.6642L41.4726 709.6272L41.4726 709.6272L41.44643 709.5918L41.44643 709.5918L41.42179 709.5548L41.42179 709.5548L41.39716 709.5147L41.39716 709.5147L41.37561 709.4747L41.37561 709.4747L41.35251 709.433L41.35251 709.433L41.33096 709.3914L41.33096 709.3914L41.31094 709.3483L41.31094 709.3483L41.27246 709.2589L41.27246 709.2589L41.23551 709.1679L41.23551 709.1679L41.20317 709.0724L41.20317 709.0724L41.17392 708.9768L41.17392 708.9768L41.14467 708.8766L41.14467 708.8766L41.12004 708.778L41.12004 708.778L41.09694 708.6794L41.09694 708.6794L41.07693 708.5776L41.07693 708.5776L41.05692 708.479L41.05692 708.479L41.03998 708.3819L41.03998 708.3819L41.02613 708.2848L41.02613 708.2848L41.01381 708.1908L41.01381 708.1908L41.00149 708.0983L41.00149 708.0983L40.99379 708.0104L40.99379 708.0104L40.98455 707.9226L40.98455 707.9226L40.97224 707.7654L40.97224 707.7654L40.96608 707.6267L40.96608 707.6267L40.96146 707.5126L40.96146 707.5126L40.95992 707.4263L40.95992 707.4263L40.96146 707.4093L40.96146 707.4093L40.963 707.3908L40.963 707.3908L40.9707 707.3724L40.9707 707.3724L40.97686 707.3554L40.97686 707.3554L40.98763 707.3369L40.98763 707.3369L40.99995 707.3184L40.99995 707.3184L41.01381 707.3015L41.01381 707.3015L41.0292 707.2814L41.0292 707.2814L41.04922 707.2629L41.04922 707.2629L41.06923 707.246L41.06923 707.246L41.09232 707.2259L41.09232 707.2259L41.1185 707.209L41.1185 707.209L41.14621 707.1889L41.14621 707.1889L41.17546 707.1704L41.17546 707.1704L41.20625 707.1535L41.20625 707.1535L41.24167 707.1335L41.24167 707.1335L41.27861 707.1165L41.27861 707.1165L41.31556 707.098L41.31556 707.098L41.40178 707.0626L41.40178 707.0626L41.49261 707.0256L41.49261 707.0256L41.59577 706.9917L41.59577 706.9917L41.70662 706.9562L41.70662 706.9562L41.82824 706.9238L41.82824 706.9238L41.95603 706.8915L41.95603 706.8915L42.09612 706.8591L42.09612 706.8591L42.24239 706.8298L42.24239 706.8298L42.40096 706.8005L42.40096 706.8005L42.56723 706.7728L42.56723 706.7728L42.74274 706.7451L42.74274 706.7451L42.92903 706.7204L42.92903 706.7204L43.12148 706.6973L43.12148 706.6973L43.32624 706.6757L43.32624 706.6757L43.54024 706.6557L43.54024 706.6557L43.76194 706.6372L43.76194 706.6372L43.99287 706.6217L43.99287 706.6217L44.23459 706.6079L44.23459 706.6079L44.48554 706.5971L44.48554 706.5971L44.74573 706.5878L44.74573 706.5878L45.01669 706.5817L45.01669 706.5817L45.29689 706.5755L45.29689 706.5755L45.58633 706.5755zM46.49239 710.1192L46.47389 710.1192L46.47389 710.1192L46.45848 710.1192L46.45848 710.1192L46.44307 710.1146L46.44307 710.1146L46.42765 710.1115L46.42765 710.1115L46.41224 710.1069L46.41224 710.1069L46.39683 710.0992L46.39683 710.0992L46.38295 710.0915L46.38295 710.0915L46.36908 710.0807L46.36908 710.0807L46.35675 710.0699L46.35675 710.0699L45.85889 709.574L45.85889 709.574L45.84656 709.5617L45.84656 709.5617L45.83886 709.5479L45.83886 709.5479L45.8296 709.5325L45.8296 709.5325L45.82344 709.5186L45.82344 709.5186L45.81727 709.5017L45.81727 709.5017L45.81265 709.4863L45.81265 709.4863L45.81111 709.4693L45.81111 709.4693L45.80957 709.4539L45.80957 709.4539L45.81111 709.4385L45.81111 709.4385L45.81265 709.4231L45.81265 709.4231L45.81727 709.4046L45.81727 709.4046L45.82344 709.3892L45.82344 709.3892L45.8296 709.3754L45.8296 709.3754L45.83886 709.3615L45.83886 709.3615L45.84656 709.3476L45.84656 709.3476L45.85889 709.3338L45.85889 709.3338L46.27506 708.921L46.27506 708.921L46.24115 708.8379L46.24115 708.8379L46.20878 708.7439L46.20878 708.7439L46.17487 708.6392L46.17487 708.6392L46.1425 708.5268L46.1425 708.5268L46.11167 708.4036L46.11167 708.4036L46.08239 708.2727L46.08239 708.2727L46.05156 708.1341L46.05156 708.1341L46.02382 707.9862L46.02382 707.9862L45.99761 707.8322L45.99761 707.8322L45.97449 707.6705L45.97449 707.6705L45.95292 707.5011L45.95292 707.5011L45.93442 707.3271L45.93442 707.3271L45.91592 707.1453L45.91592 707.1453L45.90205 706.9605L45.90205 706.9605L45.89126 706.7711L45.89126 706.7711L45.88355 706.5755L45.88355 706.5755L47.06732 706.5755L47.06732 706.5755L47.05961 706.7711L47.05961 706.7711L47.04728 706.9605L47.04728 706.9605L47.0334 707.1453L47.0334 707.1453L47.01799 707.3271L47.01799 707.3271L46.99796 707.5011L46.99796 707.5011L46.97637 707.6705L46.97637 707.6705L46.95171 707.8322L46.95171 707.8322L46.92705 707.9862L46.92705 707.9862L46.89777 708.1341L46.89777 708.1341L46.86848 708.2727L46.86848 708.2727L46.83919 708.4036L46.83919 708.4036L46.80837 708.5268L46.80837 708.5268L46.77446 708.6392L46.77446 708.6392L46.74209 708.7439L46.74209 708.7439L46.70972 708.8379L46.70972 708.8379L46.67581 708.921L46.67581 708.921L47.09197 709.3338L47.09197 709.3338L47.10431 709.3476L47.10431 709.3476L47.11356 709.3615L47.11356 709.3615L47.1228 709.3754L47.1228 709.3754L47.12897 709.3892L47.12897 709.3892L47.13514 709.4046L47.13514 709.4046L47.13822 709.4231L47.13822 709.4231L47.13976 709.4385L47.13976 709.4385L47.1413 709.4539L47.1413 709.4539L47.13976 709.4693L47.13976 709.4693L47.13822 709.4863L47.13822 709.4863L47.13514 709.5017L47.13514 709.5017L47.12743 709.5186L47.12743 709.5186L47.12126 709.5325L47.12126 709.5325L47.11202 709.5479L47.11202 709.5479L47.10431 709.5617L47.10431 709.5617L47.09197 709.574L47.09197 709.574L46.59566 710.0699L46.59566 710.0699L46.58179 710.0807L46.58179 710.0807L46.56791 710.0915L46.56791 710.0915L46.55405 710.0992L46.55405 710.0992L46.53863 710.1069L46.53863 710.1069L46.52322 710.1115L46.52322 710.1115L46.5078 710.1146z" stroke="none" fill="#FFFFFE" fill-rule="evenodd" /></g><g clip-path="url(#6)"></g><g clip-path="url(#7)"></g></g></g></g></svg>