<svg xmlns="http://www.w3.org/2000/svg" xmlns:xlink="http://www.w3.org/1999/xlink" id="body_1" preserveAspectRatio="xMinYMin meet" viewBox="0 0 793 1121"><defs><clipPath id="1"><path d="M0 841L0 0L0 0L595 0L595 0L595 841L595 841L0 841z" /></clipPath><clipPath id="2"><path d="M0 192.428L595 192.428L595 192.428L595 0.0009765625L595 0.0009765625L0 0.0009765625z" /></clipPath><clipPath id="3"><path d="M32 213.789L53 213.789L53 213.789L53 189.79L53 189.79L32 189.79z" /></clipPath><clipPath id="4"><path d="M0 841L595 841L595 841L595 0L595 0L0 0z" /></clipPath><clipPath id="5"><path d="M28.6 230.65L129.45 230.65L129.45 230.65L129.45 212.7L129.45 212.7L28.6 212.7z" /></clipPath><clipPath id="6"><path d="M28.6 347.45L129.45 347.45L129.45 347.45L129.45 329.5L129.45 329.5L28.6 329.5z" /></clipPath><clipPath id="7"><path d="M129.451 347.45L412.35 347.45L412.35 347.45L412.35 329.5L412.35 329.5L129.451 329.5z" /></clipPath><clipPath id="8"><path d="M412.349 347.45L555.949 347.45L555.949 347.45L555.949 329.5L555.949 329.5L412.349 329.5z" /></clipPath><clipPath id="9"><path d="M22.95 802.25L561.6 802.25L561.6 802.25L561.6 171.6L561.6 171.6L22.95 171.6z" /></clipPath><clipPath id="10"><path d="M28.6 419.3L129.45 419.3L129.45 419.3L129.45 401.35L129.45 401.35L28.6 401.35z" /></clipPath><clipPath id="11"><path d="M129.451 419.3L412.35 419.3L412.35 419.3L412.35 401.35L412.35 401.35L129.451 401.35z" /></clipPath><clipPath id="12"><path d="M412.349 419.3L555.949 419.3L555.949 419.3L555.949 401.35L555.949 401.35L412.349 401.35z" /></clipPath><clipPath id="13"><path d="M28.6 491.201L129.45 491.201L129.45 491.201L129.45 473.25L129.45 473.25L28.6 473.25z" /></clipPath><clipPath id="14"><path d="M129.451 491.201L412.35 491.201L412.35 491.201L412.35 473.25L412.35 473.25L129.451 473.25z" /></clipPath><clipPath id="15"><path d="M412.349 491.201L555.949 491.201L555.949 491.201L555.949 473.25L555.949 473.25L412.349 473.25z" /></clipPath><clipPath id="16"><path d="M34 571.323L54 571.323L54 571.323L54 547.324L54 547.324L34 547.324z" /></clipPath><clipPath id="17"><path d="M28.35 566.05L117.45 566.05L117.45 566.05L117.45 548.05L117.45 548.05L28.35 548.05z" /></clipPath><clipPath id="18"><path d="M29.75 589.4L129.45 589.4L129.45 589.4L129.45 571.45L129.45 571.45L29.75 571.45z" /></clipPath><clipPath id="19"><path d="M129.451 589.4L412.701 589.4L412.701 589.4L412.701 571.45L412.701 571.45L129.451 571.45z" /></clipPath><clipPath id="20"><path d="M412.7 589.4L555.7 589.4L555.7 589.4L555.7 571.45L555.7 571.45L412.7 571.45z" /></clipPath><clipPath id="21"><path d="M28.35 680.5L126.7 680.5L126.7 680.5L126.7 662.5L126.7 662.5L28.35 662.5z" /></clipPath><clipPath id="22"><path d="M36 686.054L57 686.054L57 686.054L57 661.055L57 661.055L36 661.055z" /></clipPath><clipPath id="23"><path d="M22.95 802.25L561.6 802.25L561.6 802.25L561.6 171.6L561.6 171.6L22.95 171.6z" /></clipPath><clipPath id="24"><path d="M22.95 802.25L561.6 802.25L561.6 802.25L561.6 171.6L561.6 171.6L22.95 171.6z" /></clipPath><clipPath id="25"><path d="M28.35 795L125.35 795L125.35 795L125.35 777L125.35 777L28.35 777z" /></clipPath><clipPath id="26"><path d="M36 798.621L59 798.621L59 798.621L59 774.622L59 774.622L36 774.622z" /></clipPath></defs><g transform="matrix(1.333333 0 0 1.333333 0 0)"><g><g clip-path="url(#1)"><path transform="matrix(1 0 0 -1 0 841)" d="M0 828.049L595 828.049L595 828.049L595 829.049L595 829.049L0 829.049z" stroke="none" fill="#000000" fill-rule="winding" /><path transform="matrix(1 0 0 -1 0 841)" d="M0.49 708.4L595 708.4L595 708.4L595 840.4L595 840.4L0.49 840.4z" stroke="none" fill="#81A9B8" fill-rule="winding" /><g clip-path="url(#2)"><g transform="matrix(1 0 0 1 -4 -0.5720215)"><g transform="matrix(1 0 0 1 0 0)"><image x="0" y="0" xlink:href="img_01.png" width="604" height="193" /></g></g></g><g transform="matrix(1 0 0 1 21 20)"><g transform="matrix(1 0 0 1 0 0)"><image x="0" y="0" xlink:href="img_02.png" width="555" height="152" /></g></g><g transform="matrix(1 0 0 1 12 11.37488)"><g transform="matrix(1 0 0 1 0 0)"><image x="0" y="0" xlink:href="img_03.png" width="89" height="89" /></g></g><g transform="matrix(1 0 0 1 17 17)"><g transform="matrix(1 0 0 1 0 0)"><image x="0" y="0" xlink:href="img_04.png" width="79" height="79" /></g></g><path transform="matrix(1 0 0 -1 0 841)" d="M18.7949 780.2754L61.3739 822.8534" stroke="#FFFFFF" stroke-width="1" stroke-dasharray="4,3" fill="none" /><path transform="matrix(1 0 0 -1 0 841)" d="M18.7949 750.8623L91.1319 823.1983" stroke="#FFFFFF" stroke-width="1" stroke-dasharray="4,3" fill="none" /><g clip-path="url(#3)"><g transform="matrix(1 0 0 1 32 189.7894)"><g transform="matrix(1 0 0 1 0 0)"><image x="0" y="0" xlink:href="img_05.png" width="21" height="24" /></g></g></g><g transform="matrix(1 0 0 1 33 190)"><g transform="matrix(1 0 0 1 0 0)"><image x="0" y="0" xlink:href="img_06.png" width="19" height="21" /></g></g><g clip-path="url(#4)"><path transform="matrix(1 0 0 -1 0 841)" d="M42.94 639.5975L39.171 640.8345L39.171 640.8345L39.171 639.9065C 39.377 639.7005 39.48 639.4425 39.48 639.1845C 39.48 638.9265 39.377 638.6685 39.222 638.5145C 39.274 638.3595 39.377 638.2055 39.48 638.1535C 41.701 636.9675 44.696 636.9675 47.123 638.3085C 47.329 638.4115 47.433 638.6175 47.433 638.8235L47.433 638.8235L47.433 640.8865L47.433 640.8865L43.611 639.5975C 43.198 639.4425 43.302 639.4425 42.94 639.5975M49.498 642.8975L43.56 644.9605C 43.198 645.0635 43.25 645.0635 42.889 644.9605L42.889 644.9605L36.899 642.8975C 36.486 642.7945 36.486 642.5365 36.899 642.4335L36.899 642.4335L38.293 641.9185C 37.673 641.2985 37.622 640.6805 37.622 639.9585C 37.363 639.8555 37.208 639.5975 37.208 639.3395C 37.208 639.0815 37.363 638.8755 37.57 638.7725C 37.467 637.9985 37.157 637.1735 36.331 636.1425C 36.744 635.8325 36.95 635.7295 37.312 635.5745C 38.499 636.0905 38.345 637.4825 38.241 638.8235C 38.396 638.9265 38.499 639.1335 38.499 639.3395C 38.499 639.5975 38.396 639.8035 38.189 639.9065C 38.241 640.6285 38.396 641.2475 38.913 641.6605C 38.913 641.7115 38.964 641.7115 38.964 641.7115L38.964 641.7115L43.095 643.3615C 43.25 643.4135 43.405 643.3615 43.456 643.2075C 43.508 643.0526 43.456 642.8465 43.302 642.7945L43.302 642.7945L39.842 641.4025L39.842 641.4025L42.94 640.3705C 43.302 640.2165 43.25 640.2165 43.611 640.3705L43.611 640.3705L49.549 642.3815C 49.911 642.5365 49.911 642.7435 49.498 642.8975" stroke="none" fill="#FFFFFF" fill-rule="evenodd" /></g><g clip-path="url(#5)"></g><g transform="matrix(1 0 0 1 34 302.7)"><g transform="matrix(1 0 0 1 0 0)"><image x="0" y="0" xlink:href="img_07.png" width="21" height="24" /></g></g><g transform="matrix(1 0 0 1 35 303)"><g transform="matrix(1 0 0 1 0 0)"><image x="0" y="0" xlink:href="img_08.png" width="19" height="21" /></g></g><g transform="matrix(0.2196078 0 0 0.2244186 38.6 308.5)"><g transform="matrix(1 0 0 1 0 0)"><image x="0" y="0" xlink:href="img_09.png" width="51" height="43" /></g></g><g clip-path="url(#6)"></g><g clip-path="url(#7)"></g><g clip-path="url(#8)"></g><g clip-path="url(#9)"></g><g clip-path="url(#10)"></g><g clip-path="url(#11)"></g><g clip-path="url(#12)"></g><g clip-path="url(#13)"></g><g clip-path="url(#14)"></g><g clip-path="url(#15)"></g><g clip-path="url(#16)"><g transform="matrix(1 0 0 1 34 547.3237)"><g transform="matrix(1 0 0 1 0 0)"><image x="0" y="0" xlink:href="img_10.png" width="20" height="24" /></g></g></g><g transform="matrix(1 0 0 1 35 548)"><g transform="matrix(1 0 0 1 0 0)"><image x="0" y="0" xlink:href="img_11.png" width="18" height="21" /></g></g><path transform="matrix(1 0 0 -1 0 841)" d="M48.6631 283.3066L44.7131 283.3066L44.7131 283.3066L44.7131 287.2556L44.7131 287.2556L43.3631 287.2556L43.3631 287.2556L43.3631 283.3066L43.3631 283.3066L39.4131 283.3066L39.4131 283.3066L39.4131 281.8066L39.4131 281.8066L43.3631 281.8066L43.3631 281.8066L43.3631 277.8566L43.3631 277.8566L44.7131 277.8566L44.7131 277.8566L44.7131 281.8066L44.7131 281.8066L48.6631 281.8066z" stroke="none" fill="#FFFFFF" fill-rule="evenodd" /><g clip-path="url(#17)"></g><g clip-path="url(#18)"></g><g clip-path="url(#19)"></g><g clip-path="url(#20)"></g><g clip-path="url(#21)"></g><g clip-path="url(#22)"><g transform="matrix(1 0 0 1 36 661.0542)"><g transform="matrix(1 0 0 1 0 0)"><image x="0" y="0" xlink:href="img_12.png" width="21" height="25" /></g></g></g><g transform="matrix(1 0 0 1 37 662)"><g transform="matrix(1 0 0 1 0 0)"><image x="0" y="0" xlink:href="img_13.png" width="19" height="22" /></g></g><path transform="matrix(1 0 0 -1 0 841)" d="M46.3508 173.9225L46.3658 173.9225L46.3658 173.9225L47.3588 173.9225L47.3588 173.9225L47.3728 173.9225L47.3728 173.9225L47.3878 173.9215L47.3878 173.9215L47.4028 173.9195L47.4028 173.9195L47.4178 173.9165L47.4178 173.9165L47.4458 173.9095L47.4458 173.9095L47.4728 173.9005L47.4728 173.9005L47.4978 173.8875L47.4978 173.8875L47.5218 173.8745L47.5218 173.8745L47.5448 173.8565L47.5448 173.8565L47.5658 173.8375L47.5658 173.8375L47.5848 173.8165L47.5848 173.8165L47.6008 173.7945L47.6008 173.7945L47.6158 173.7695L47.6158 173.7695L47.6288 173.7445L47.6288 173.7445L47.6378 173.7185L47.6378 173.7185L47.6448 173.6895L47.6448 173.6895L47.6468 173.6745L47.6468 173.6745L47.6498 173.6605L47.6498 173.6605L47.6518 173.6465L47.6518 173.6465L47.6518 173.6305L47.6518 173.6305L47.6518 172.6495L47.6518 172.6495L47.7378 172.6345L47.7378 172.6345L47.8238 172.6175L47.8238 172.6175L47.9108 172.5985L47.9108 172.5985L47.9948 172.5795L47.9948 172.5795L48.0798 172.5565L48.0798 172.5565L48.1628 172.5355L48.1628 172.5355L48.2478 172.5095L48.2478 172.5095L48.3298 172.4845L48.3298 172.4845L48.4118 172.4565L48.4118 172.4565L48.4928 172.4275L48.4928 172.4275L48.5738 172.3965L48.5738 172.3965L48.6538 172.3645L48.6538 172.3645L48.7328 172.3325L48.7328 172.3325L48.8118 172.2965L48.8118 172.2965L48.8878 172.2615L48.8878 172.2615L48.9668 172.2235L48.9668 172.2235L49.5428 173.0165L49.5428 173.0165L49.5528 173.0295L49.5528 173.0295L49.5618 173.0415L49.5618 173.0415L49.5728 173.0505L49.5728 173.0505L49.5818 173.0615L49.5818 173.0615L49.6038 173.0805L49.6038 173.0805L49.6278 173.0955L49.6278 173.0955L49.6538 173.1085L49.6538 173.1085L49.6788 173.1205L49.6788 173.1205L49.7058 173.1275L49.7058 173.1275L49.7338 173.1345L49.7338 173.1345L49.7618 173.1365L49.7618 173.1365L49.7898 173.1365L49.7898 173.1365L49.8168 173.1345L49.8168 173.1345L49.8458 173.1285L49.8458 173.1285L49.8728 173.1225L49.8728 173.1225L49.8998 173.1105L49.8998 173.1105L49.9258 173.0975L49.9258 173.0975L49.9398 173.0895L49.9398 173.0895L49.9508 173.0815L49.9508 173.0815L50.7548 172.5015L50.7548 172.5015L50.7648 172.4905L50.7648 172.4905L50.7778 172.4825L50.7778 172.4825L50.7878 172.4705L50.7878 172.4705L50.7988 172.4605L50.7988 172.4605L50.8158 172.4385L50.8158 172.4385L50.8318 172.4145L50.8318 172.4145L50.8458 172.3895L50.8458 172.3895L50.8568 172.3635L50.8568 172.3635L50.8648 172.3355L50.8648 172.3355L50.8698 172.3095L50.8698 172.3095L50.8748 172.2815L50.8748 172.2815L50.8748 172.2535L50.8748 172.2535L50.8708 172.2245L50.8708 172.2245L50.8668 172.1975L50.8668 172.1975L50.8578 172.1695L50.8578 172.1695L50.8488 172.1425L50.8488 172.1425L50.8348 172.1175L50.8348 172.1175L50.8278 172.1045L50.8278 172.1045L50.8188 172.0915L50.8188 172.0915L50.2408 171.2975L50.2408 171.2975L50.3008 171.2375L50.3008 171.2375L50.3598 171.1725L50.3598 171.1725L50.4168 171.1095L50.4168 171.1095L50.4728 171.0425L50.4728 171.0425L50.5288 170.9765L50.5288 170.9765L50.5828 170.9095L50.5828 170.9095L50.6358 170.8405L50.6358 170.8405L50.6878 170.7705L50.6878 170.7705L50.7378 170.7005L50.7378 170.7005L50.7878 170.6285L50.7878 170.6285L50.8348 170.5575L50.8348 170.5575L50.8818 170.4835L50.8818 170.4835L50.9278 170.4105L50.9278 170.4105L50.9698 170.3345L50.9698 170.3345L51.0138 170.2575L51.0138 170.2575L51.0548 170.1805L51.0548 170.1805L51.9878 170.4855L51.9878 170.4855L52.0018 170.4895L52.0018 170.4895L52.0168 170.4925L52.0168 170.4925L52.0308 170.4945L52.0308 170.4945L52.0448 170.4975L52.0448 170.4975L52.0748 170.4995L52.0748 170.4995L52.1028 170.4985L52.1028 170.4985L52.1318 170.4945L52.1318 170.4945L52.1578 170.4895L52.1578 170.4895L52.1858 170.4785L52.1858 170.4785L52.2108 170.4665L52.2108 170.4665L52.2358 170.4535L52.2358 170.4535L52.2588 170.4385L52.2588 170.4385L52.2798 170.4185L52.2798 170.4185L52.2988 170.3985L52.2988 170.3985L52.3168 170.3765L52.3168 170.3765L52.3328 170.3515L52.3328 170.3515L52.3458 170.3265L52.3458 170.3265L52.3508 170.3125L52.3508 170.3125L52.3568 170.2975L52.3568 170.2975L52.6628 169.3575L52.6628 169.3575L52.6658 169.3435L52.6658 169.3435L52.6698 169.3285L52.6698 169.3285L52.6728 169.3135L52.6728 169.3135L52.6758 169.2985L52.6758 169.2985L52.6768 169.2705L52.6768 169.2705L52.6758 169.2425L52.6758 169.2425L52.6718 169.2135L52.6718 169.2135L52.6658 169.1865L52.6658 169.1865L52.6568 169.1595L52.6568 169.1595L52.6448 169.1345L52.6448 169.1345L52.6318 169.1105L52.6318 169.1105L52.6158 169.0865L52.6158 169.0865L52.5968 169.0665L52.5968 169.0665L52.5758 169.0455L52.5758 169.0455L52.5528 169.0275L52.5528 169.0275L52.5298 169.0125L52.5298 169.0125L52.5038 168.9995L52.5038 168.9995L52.4898 168.9935L52.4898 168.9935L52.4748 168.9885L52.4748 168.9885L51.5418 168.6865L51.5418 168.6865L51.5518 168.6005L51.5518 168.6005L51.5638 168.5155L51.5638 168.5155L51.5708 168.4295L51.5708 168.4295L51.5778 168.3425L51.5778 168.3425L51.5838 168.2565L51.5838 168.2565L51.5888 168.1695L51.5888 168.1695L51.5908 168.0835L51.5908 168.0835L51.5918 167.9965L51.5918 167.9965L51.5908 167.9085L51.5908 167.9085L51.5888 167.8215L51.5888 167.8215L51.5838 167.7335L51.5838 167.7335L51.5778 167.6475L51.5778 167.6475L51.5708 167.5605L51.5708 167.5605L51.5638 167.4755L51.5638 167.4755L51.5518 167.3905L51.5518 167.3905L51.5418 167.3055L51.5418 167.3055L52.4748 167.0015L52.4748 167.0015L52.4898 166.9975L52.4898 166.9975L52.5038 166.9915L52.5038 166.9915L52.5298 166.9785L52.5298 166.9785L52.5528 166.9625L52.5528 166.9625L52.5758 166.9455L52.5758 166.9455L52.5968 166.9265L52.5968 166.9265L52.6158 166.9045L52.6158 166.9045L52.6318 166.8815L52.6318 166.8815L52.6448 166.8565L52.6448 166.8565L52.6568 166.8325L52.6568 166.8325L52.6658 166.8045L52.6658 166.8045L52.6718 166.7775L52.6718 166.7775L52.6758 166.7495L52.6758 166.7495L52.6768 166.7215L52.6768 166.7215L52.6758 166.6935L52.6758 166.6935L52.6728 166.6775L52.6728 166.6775L52.6698 166.6635L52.6698 166.6635L52.6658 166.6485L52.6658 166.6485L52.6628 166.6345L52.6628 166.6345L52.3568 165.6925L52.3568 165.6925L52.3508 165.6785L52.3508 165.6785L52.3458 165.6655L52.3458 165.6655L52.3328 165.6395L52.3328 165.6395L52.3168 165.6155L52.3168 165.6155L52.2988 165.5925L52.2988 165.5925L52.2798 165.5725L52.2798 165.5725L52.2588 165.5525L52.2588 165.5525L52.2358 165.5375L52.2358 165.5375L52.2108 165.5245L52.2108 165.5245L52.1858 165.5115L52.1858 165.5115L52.1578 165.5025L52.1578 165.5025L52.1318 165.4975L52.1318 165.4975L52.1028 165.4935L52.1028 165.4935L52.0748 165.4925L52.0748 165.4925L52.0448 165.4935L52.0448 165.4935L52.0308 165.4965L52.0308 165.4965L52.0168 165.4985L52.0168 165.4985L52.0018 165.5015L52.0018 165.5015L51.9878 165.5065L51.9878 165.5065L51.0548 165.8095L51.0548 165.8095L51.0118 165.7325L51.0118 165.7325L50.9698 165.6565L50.9698 165.6565L50.9268 165.5815L50.9268 165.5815L50.8818 165.5065L50.8818 165.5065L50.8348 165.4345L50.8348 165.4345L50.7868 165.3615L50.7868 165.3615L50.7368 165.2905L50.7368 165.2905L50.6868 165.2195L50.6868 165.2195L50.6358 165.1505L50.6358 165.1505L50.5828 165.0835L50.5828 165.0835L50.5288 165.0155L50.5288 165.0155L50.4728 164.9495L50.4728 164.9495L50.4158 164.8825L50.4158 164.8825L50.3598 164.8185L50.3598 164.8185L50.3008 164.7565L50.3008 164.7565L50.2408 164.6935L50.2408 164.6935L50.8188 163.8995L50.8188 163.8995L50.8278 163.8865L50.8278 163.8865L50.8348 163.8735L50.8348 163.8735L50.8488 163.8475L50.8488 163.8475L50.8578 163.8215L50.8578 163.8215L50.8668 163.7935L50.8668 163.7935L50.8708 163.7655L50.8708 163.7655L50.8748 163.7385L50.8748 163.7385L50.8748 163.7095L50.8748 163.7095L50.8698 163.6815L50.8698 163.6815L50.8648 163.6555L50.8648 163.6555L50.8568 163.6275L50.8568 163.6275L50.8468 163.6015L50.8468 163.6015L50.8338 163.5785L50.8338 163.5785L50.8168 163.5525L50.8168 163.5525L50.7988 163.5315L50.7988 163.5315L50.7888 163.5205L50.7888 163.5205L50.7778 163.5115L50.7778 163.5115L50.7668 163.5015L50.7668 163.5015L50.7548 163.4925L50.7548 163.4925L49.9508 162.9115L49.9508 162.9115L49.9398 162.9015L49.9398 162.9015L49.9258 162.8935L49.9258 162.8935L49.8998 162.8795L49.8998 162.8795L49.8728 162.8695L49.8728 162.8695L49.8458 162.8615L49.8458 162.8615L49.8168 162.8555L49.8168 162.8555L49.7898 162.8535L49.7898 162.8535L49.7618 162.8535L49.7618 162.8535L49.7338 162.8585L49.7338 162.8585L49.7058 162.8625L49.7058 162.8625L49.6788 162.8715L49.6788 162.8715L49.6538 162.8815L49.6538 162.8815L49.6278 162.8955L49.6278 162.8955L49.6038 162.9125L49.6038 162.9125L49.5818 162.9305L49.5818 162.9305L49.5728 162.9405L49.5728 162.9405L49.5618 162.9515L49.5618 162.9515L49.5528 162.9615L49.5528 162.9615L49.5428 162.9745L49.5428 162.9745L48.9668 163.7675L48.9668 163.7675L48.8878 163.7305L48.8878 163.7305L48.8118 163.6935L48.8118 163.6935L48.7328 163.6595L48.7328 163.6595L48.6538 163.6265L48.6538 163.6265L48.5738 163.5935L48.5738 163.5935L48.4928 163.5645L48.4928 163.5645L48.4118 163.5345L48.4118 163.5345L48.3298 163.5065L48.3298 163.5065L48.2478 163.4815L48.2478 163.4815L48.1628 163.4575L48.1628 163.4575L48.0798 163.4335L48.0798 163.4335L47.9948 163.4125L47.9948 163.4125L47.9108 163.3915L47.9108 163.3915L47.8238 163.3735L47.8238 163.3735L47.7378 163.3555L47.7378 163.3555L47.6518 163.3405L47.6518 163.3405L47.6518 162.3605L47.6518 162.3605L47.6518 162.3465L47.6518 162.3465L47.6498 162.3325L47.6498 162.3325L47.6468 162.3165L47.6468 162.3165L47.6448 162.3015L47.6448 162.3015L47.6378 162.2745L47.6378 162.2745L47.6288 162.2475L47.6288 162.2475L47.6158 162.2215L47.6158 162.2215L47.6008 162.1985L47.6008 162.1985L47.5848 162.1745L47.5848 162.1745L47.5658 162.1555L47.5658 162.1555L47.5448 162.1345L47.5448 162.1345L47.5218 162.1195L47.5218 162.1195L47.4978 162.1045L47.4978 162.1045L47.4728 162.0925L47.4728 162.0925L47.4458 162.0825L47.4458 162.0825L47.4178 162.0745L47.4178 162.0745L47.3878 162.0715L47.3878 162.0715L47.3728 162.0695L47.3728 162.0695L47.3588 162.0695L47.3588 162.0695L46.3658 162.0695L46.3658 162.0695L46.3508 162.0695L46.3508 162.0695L46.3378 162.0715L46.3378 162.0715L46.3068 162.0745L46.3068 162.0745L46.2798 162.0825L46.2798 162.0825L46.2528 162.0925L46.2528 162.0925L46.2268 162.1045L46.2268 162.1045L46.2038 162.1195L46.2038 162.1195L46.1798 162.1345L46.1798 162.1345L46.1598 162.1555L46.1598 162.1555L46.1398 162.1745L46.1398 162.1745L46.1248 162.1985L46.1248 162.1985L46.1098 162.2215L46.1098 162.2215L46.0978 162.2475L46.0978 162.2475L46.0868 162.2745L46.0868 162.2745L46.0798 162.3015L46.0798 162.3015L46.0778 162.3165L46.0778 162.3165L46.0748 162.3325L46.0748 162.3325L46.0738 162.3465L46.0738 162.3465L46.0738 162.3605L46.0738 162.3605L46.0738 163.3405L46.0738 163.3405L45.9878 163.3555L45.9878 163.3555L45.9008 163.3735L45.9008 163.3735L45.8138 163.3915L45.8138 163.3915L45.7308 163.4125L45.7308 163.4125L45.6458 163.4335L45.6458 163.4335L45.5608 163.4575L45.5608 163.4575L45.4788 163.4815L45.4788 163.4815L45.3968 163.5065L45.3968 163.5065L45.3128 163.5345L45.3128 163.5345L45.2318 163.5645L45.2318 163.5645L45.1518 163.5935L45.1518 163.5935L45.0718 163.6265L45.0718 163.6265L44.9918 163.6595L44.9918 163.6595L44.9138 163.6935L44.9138 163.6935L44.8368 163.7305L44.8368 163.7305L44.7588 163.7675L44.7588 163.7675L44.1818 162.9735L44.1818 162.9735L44.1728 162.9605L44.1728 162.9605L44.1638 162.9495L44.1638 162.9495L44.1528 162.9395L44.1528 162.9395L44.1428 162.9285L44.1428 162.9285L44.1198 162.9115L44.1198 162.9115L44.0968 162.8945L44.0968 162.8945L44.0718 162.8815L44.0718 162.8815L44.0458 162.8715L44.0458 162.8715L44.0188 162.8625L44.0188 162.8625L43.9918 162.8585L43.9918 162.8585L43.9638 162.8535L43.9638 162.8535L43.9348 162.8535L43.9348 162.8535L43.9058 162.8555L43.9058 162.8555L43.8788 162.8615L43.8788 162.8615L43.8508 162.8695L43.8508 162.8695L43.8248 162.8795L43.8248 162.8795L43.7978 162.8935L43.7978 162.8935L43.7848 162.9015L43.7848 162.9015L43.7728 162.9115L43.7728 162.9115L42.9708 163.4925L42.9708 163.4925L42.9608 163.5015L42.9608 163.5015L42.9488 163.5115L42.9488 163.5115L42.9378 163.5205L42.9378 163.5205L42.9288 163.5315L42.9288 163.5315L42.9098 163.5525L42.9098 163.5525L42.8938 163.5785L42.8938 163.5785L42.8808 163.6015L42.8808 163.6015L42.8688 163.6275L42.8688 163.6275L42.8608 163.6555L42.8608 163.6555L42.8558 163.6815L42.8558 163.6815L42.8518 163.7095L42.8518 163.7095L42.8518 163.7385L42.8518 163.7385L42.8548 163.7655L42.8548 163.7655L42.8588 163.7935L42.8588 163.7935L42.8668 163.8215L42.8668 163.8215L42.8778 163.8475L42.8778 163.8475L42.8838 163.8605L42.8838 163.8605L42.8898 163.8735L42.8898 163.8735L42.8988 163.8865L42.8988 163.8865L42.9078 163.8995L42.9078 163.8995L43.4848 164.6935L43.4848 164.6935L43.4248 164.7565L43.4248 164.7565L43.3668 164.8185L43.3668 164.8185L43.3088 164.8825L43.3088 164.8825L43.2518 164.9495L43.2518 164.9495L43.1968 165.0155L43.1968 165.0155L43.1428 165.0835L43.1428 165.0835L43.0908 165.1505L43.0908 165.1505L43.0378 165.2195L43.0378 165.2195L42.9878 165.2905L42.9878 165.2905L42.9398 165.3615L42.9398 165.3615L42.8908 165.4345L42.8908 165.4345L42.8438 165.5065L42.8438 165.5065L42.8008 165.5815L42.8008 165.5815L42.7558 165.6565L42.7558 165.6565L42.7138 165.7325L42.7138 165.7325L42.6718 165.8095L42.6718 165.8095L41.7368 165.5065L41.7368 165.5065L41.7228 165.5015L41.7228 165.5015L41.7088 165.4985L41.7088 165.4985L41.6938 165.4965L41.6938 165.4965L41.6798 165.4935L41.6798 165.4935L41.6498 165.4925L41.6498 165.4925L41.6218 165.4935L41.6218 165.4935L41.5948 165.4975L41.5948 165.4975L41.5668 165.5025L41.5668 165.5025L41.5408 165.5115L41.5408 165.5115L41.5148 165.5245L41.5148 165.5245L41.4888 165.5375L41.4888 165.5375L41.4678 165.5525L41.4678 165.5525L41.4468 165.5725L41.4468 165.5725L41.4268 165.5925L41.4268 165.5925L41.4078 165.6155L41.4078 165.6155L41.3938 165.6395L41.3938 165.6395L41.3798 165.6655L41.3798 165.6655L41.3738 165.6785L41.3738 165.6785L41.3688 165.6925L41.3688 165.6925L41.0618 166.6345L41.0618 166.6345L41.0588 166.6485L41.0588 166.6485L41.0548 166.6635L41.0548 166.6635L41.0528 166.6775L41.0528 166.6775L41.0498 166.6935L41.0498 166.6935L41.0478 166.7215L41.0478 166.7215L41.0488 166.7495L41.0488 166.7495L41.0528 166.7775L41.0528 166.7775L41.0598 166.8045L41.0598 166.8045L41.0688 166.8325L41.0688 166.8325L41.0798 166.8565L41.0798 166.8565L41.0928 166.8815L41.0928 166.8815L41.1108 166.9045L41.1108 166.9045L41.1278 166.9265L41.1278 166.9265L41.1488 166.9455L41.1488 166.9455L41.1708 166.9625L41.1708 166.9625L41.1958 166.9785L41.1958 166.9785L41.2088 166.9845L41.2088 166.9845L41.2228 166.9915L41.2228 166.9915L41.2368 166.9975L41.2368 166.9975L41.2498 167.0015L41.2498 167.0015L42.1848 167.3055L42.1848 167.3055L42.1728 167.3905L42.1728 167.3905L42.1628 167.4755L42.1628 167.4755L42.1548 167.5605L42.1548 167.5605L42.1468 167.6475L42.1468 167.6475L42.1418 167.7335L42.1418 167.7335L42.1368 167.8215L42.1368 167.8215L42.1348 167.9085L42.1348 167.9085L42.1348 167.9965L42.1348 167.9965L42.1348 168.0835L42.1348 168.0835L42.1368 168.1695L42.1368 168.1695L42.1418 168.2565L42.1418 168.2565L42.1468 168.3425L42.1468 168.3425L42.1548 168.4295L42.1548 168.4295L42.1628 168.5155L42.1628 168.5155L42.1728 168.6005L42.1728 168.6005L42.1848 168.6865L42.1848 168.6865L41.2498 168.9885L41.2498 168.9885L41.2368 168.9935L41.2368 168.9935L41.2228 168.9995L41.2228 168.9995L41.1958 169.0125L41.1958 169.0125L41.1708 169.0275L41.1708 169.0275L41.1488 169.0455L41.1488 169.0455L41.1278 169.0665L41.1278 169.0665L41.1108 169.0865L41.1108 169.0865L41.0928 169.1105L41.0928 169.1105L41.0798 169.1345L41.0798 169.1345L41.0688 169.1595L41.0688 169.1595L41.0598 169.1865L41.0598 169.1865L41.0528 169.2135L41.0528 169.2135L41.0488 169.2425L41.0488 169.2425L41.0478 169.2705L41.0478 169.2705L41.0498 169.2985L41.0498 169.2985L41.0528 169.3135L41.0528 169.3135L41.0548 169.3285L41.0548 169.3285L41.0588 169.3435L41.0588 169.3435L41.0618 169.3575L41.0618 169.3575L41.3688 170.2975L41.3688 170.2975L41.3738 170.3125L41.3738 170.3125L41.3798 170.3265L41.3798 170.3265L41.3858 170.3385L41.3858 170.3385L41.3938 170.3515L41.3938 170.3515L41.4078 170.3765L41.4078 170.3765L41.4268 170.3985L41.4268 170.3985L41.4468 170.4185L41.4468 170.4185L41.4678 170.4385L41.4678 170.4385L41.4888 170.4535L41.4888 170.4535L41.5148 170.4665L41.5148 170.4665L41.5408 170.4785L41.5408 170.4785L41.5668 170.4895L41.5668 170.4895L41.5948 170.4945L41.5948 170.4945L41.6218 170.4985L41.6218 170.4985L41.6498 170.4995L41.6498 170.4995L41.6798 170.4975L41.6798 170.4975L41.6938 170.4945L41.6938 170.4945L41.7088 170.4925L41.7088 170.4925L41.7228 170.4895L41.7228 170.4895L41.7368 170.4855L41.7368 170.4855L42.6718 170.1835L42.6718 170.1835L42.7138 170.2585L42.7138 170.2585L42.7558 170.3345L42.7558 170.3345L42.8008 170.4105L42.8008 170.4105L42.8438 170.4835L42.8438 170.4835L42.8908 170.5575L42.8908 170.5575L42.9398 170.6285L42.9398 170.6285L42.9878 170.7005L42.9878 170.7005L43.0378 170.7725L43.0378 170.7725L43.0908 170.8405L43.0908 170.8405L43.1428 170.9095L43.1428 170.9095L43.1968 170.9765L43.1968 170.9765L43.2518 171.0425L43.2518 171.0425L43.3088 171.1095L43.3088 171.1095L43.3668 171.1725L43.3668 171.1725L43.4248 171.2375L43.4248 171.2375L43.4848 171.2975L43.4848 171.2975L42.9068 172.0915L42.9068 172.0915L42.8978 172.1045L42.8978 172.1045L42.8898 172.1175L42.8898 172.1175L42.8828 172.1285L42.8828 172.1285L42.8768 172.1425L42.8768 172.1425L42.8668 172.1695L42.8668 172.1695L42.8578 172.1975L42.8578 172.1975L42.8538 172.2245L42.8538 172.2245L42.8518 172.2535L42.8518 172.2535L42.8518 172.2825L42.8518 172.2825L42.8558 172.3095L42.8558 172.3095L42.8608 172.3375L42.8608 172.3375L42.8688 172.3635L42.8688 172.3635L42.8808 172.3905L42.8808 172.3905L42.8938 172.4155L42.8938 172.4155L42.9098 172.4385L42.9098 172.4385L42.9288 172.4605L42.9288 172.4605L42.9378 172.4715L42.9378 172.4715L42.9488 172.4825L42.9488 172.4825L42.9608 172.4915L42.9608 172.4915L42.9708 172.5015L42.9708 172.5015L43.7748 173.0815L43.7748 173.0815L43.7868 173.0895L43.7868 173.0895L43.7988 173.0975L43.7988 173.0975L43.8128 173.1045L43.8128 173.1045L43.8248 173.1105L43.8248 173.1105L43.8518 173.1225L43.8518 173.1225L43.8788 173.1285L43.8788 173.1285L43.9078 173.1345L43.9078 173.1345L43.9368 173.1365L43.9368 173.1365L43.9638 173.1365L43.9638 173.1365L43.9918 173.1345L43.9918 173.1345L44.0188 173.1275L44.0188 173.1275L44.0458 173.1205L44.0458 173.1205L44.0718 173.1085L44.0718 173.1085L44.0968 173.0955L44.0968 173.0955L44.1198 173.0805L44.1198 173.0805L44.1428 173.0615L44.1428 173.0615L44.1528 173.0505L44.1528 173.0505L44.1638 173.0415L44.1638 173.0415L44.1728 173.0295L44.1728 173.0295L44.1818 173.0165L44.1818 173.0165L44.7588 172.2235L44.7588 172.2235L44.8368 172.2615L44.8368 172.2615L44.9138 172.2965L44.9138 172.2965L44.9918 172.3325L44.9918 172.3325L45.0718 172.3645L45.0718 172.3645L45.1518 172.3965L45.1518 172.3965L45.2318 172.4275L45.2318 172.4275L45.3128 172.4565L45.3128 172.4565L45.3968 172.4845L45.3968 172.4845L45.4788 172.5095L45.4788 172.5095L45.5608 172.5355L45.5608 172.5355L45.6458 172.5565L45.6458 172.5565L45.7308 172.5795L45.7308 172.5795L45.8138 172.5985L45.8138 172.5985L45.9008 172.6175L45.9008 172.6175L45.9878 172.6345L45.9878 172.6345L46.0738 172.6495L46.0738 172.6495L46.0738 173.6305L46.0738 173.6305L46.0738 173.6465L46.0738 173.6465L46.0748 173.6605L46.0748 173.6605L46.0778 173.6745L46.0778 173.6745L46.0798 173.6895L46.0798 173.6895L46.0868 173.7165L46.0868 173.7165L46.0978 173.7445L46.0978 173.7445L46.1098 173.7695L46.1098 173.7695L46.1248 173.7935L46.1248 173.7935L46.1398 173.8165L46.1398 173.8165L46.1598 173.8355L46.1598 173.8355L46.1798 173.8565L46.1798 173.8565L46.2038 173.8735L46.2038 173.8735L46.2268 173.8875L46.2268 173.8875L46.2528 173.9005L46.2528 173.9005L46.2798 173.9095L46.2798 173.9095L46.3068 173.9165L46.3068 173.9165L46.3228 173.9195L46.3228 173.9195L46.3378 173.9215zM46.8008 170.3555L46.7408 170.3525L46.7408 170.3525L46.6798 170.3495L46.6798 170.3495L46.6208 170.3435L46.6208 170.3435L46.5618 170.3365L46.5618 170.3365L46.5028 170.3285L46.5028 170.3285L46.4448 170.3185L46.4448 170.3185L46.3858 170.3065L46.3858 170.3065L46.3278 170.2945L46.3278 170.2945L46.2718 170.2815L46.2718 170.2815L46.2168 170.2665L46.2168 170.2665L46.1588 170.2505L46.1588 170.2505L46.1048 170.2325L46.1048 170.2325L46.0508 170.2115L46.0508 170.2115L45.9968 170.1925L45.9968 170.1925L45.9438 170.1705L45.9438 170.1705L45.8898 170.1465L45.8898 170.1465L45.8378 170.1245L45.8378 170.1245L45.7858 170.0975L45.7858 170.0975L45.7358 170.0705L45.7358 170.0705L45.6858 170.0435L45.6858 170.0435L45.6368 170.0135L45.6368 170.0135L45.5888 169.9845L45.5888 169.9845L45.5398 169.9525L45.5398 169.9525L45.4938 169.9195L45.4938 169.9195L45.4468 169.8865L45.4468 169.8865L45.4038 169.8525L45.4038 169.8525L45.3588 169.8175L45.3588 169.8175L45.3158 169.7805L45.3158 169.7805L45.2738 169.7435L45.2738 169.7435L45.2318 169.7055L45.2318 169.7055L45.1908 169.6655L45.1908 169.6655L45.1518 169.6255L45.1518 169.6255L45.1128 169.5825L45.1128 169.5825L45.0748 169.5405L45.0748 169.5405L45.0378 169.4985L45.0378 169.4985L45.0038 169.4535L45.0038 169.4535L44.9688 169.4085L44.9688 169.4085L44.9338 169.3615L44.9338 169.3615L44.9028 169.3145L44.9028 169.3145L44.8708 169.2675L44.8708 169.2675L44.8398 169.2195L44.8398 169.2195L44.8118 169.1705L44.8118 169.1705L44.7838 169.1225L44.7838 169.1225L44.7588 169.0725L44.7588 169.0725L44.7328 169.0205L44.7328 169.0205L44.7068 168.9685L44.7068 168.9685L44.6858 168.9155L44.6858 168.9155L44.6638 168.8625L44.6638 168.8625L44.6428 168.8085L44.6428 168.8085L44.6238 168.7535L44.6238 168.7535L44.6048 168.6995L44.6048 168.6995L44.5898 168.6425L44.5898 168.6425L44.5728 168.5875L44.5728 168.5875L44.5588 168.5295L44.5588 168.5295L44.5468 168.4735L44.5468 168.4735L44.5368 168.4155L44.5368 168.4155L44.5258 168.3565L44.5258 168.3565L44.5188 168.2975L44.5188 168.2975L44.5108 168.2385L44.5108 168.2385L44.5068 168.1775L44.5068 168.1775L44.5028 168.1195L44.5028 168.1195L44.4998 168.0565L44.4998 168.0565L44.4988 167.9975L44.4988 167.9975L44.4998 167.9365L44.4998 167.9365L44.5028 167.8755L44.5028 167.8755L44.5068 167.8155L44.5068 167.8155L44.5108 167.7545L44.5108 167.7545L44.5188 167.6965L44.5188 167.6965L44.5258 167.6365L44.5258 167.6365L44.5368 167.5785L44.5368 167.5785L44.5468 167.5215L44.5468 167.5215L44.5588 167.4625L44.5588 167.4625L44.5728 167.4065L44.5728 167.4065L44.5898 167.3505L44.5898 167.3505L44.6048 167.2945L44.6048 167.2945L44.6238 167.2405L44.6238 167.2405L44.6428 167.1845L44.6428 167.1845L44.6638 167.1305L44.6638 167.1305L44.6858 167.0785L44.6858 167.0785L44.7068 167.0245L44.7068 167.0245L44.7328 166.9735L44.7328 166.9735L44.7588 166.9215L44.7588 166.9215L44.7838 166.8715L44.7838 166.8715L44.8128 166.8225L44.8128 166.8225L44.8408 166.7715L44.8408 166.7715L44.8718 166.7235L44.8718 166.7235L44.9028 166.6755L44.9028 166.6755L44.9338 166.6295L44.9338 166.6295L44.9698 166.5845L44.9698 166.5845L45.0038 166.5395L45.0038 166.5395L45.0388 166.4955L45.0388 166.4955L45.0758 166.4515L45.0758 166.4515L45.1138 166.4105L45.1138 166.4105L45.1518 166.3685L45.1518 166.3685L45.1918 166.3275L45.1918 166.3275L45.2328 166.2885L45.2328 166.2885L45.2738 166.2495L45.2738 166.2495L45.3168 166.2105L45.3168 166.2105L45.3598 166.1755L45.3598 166.1755L45.4048 166.1395L45.4048 166.1395L45.4478 166.1045L45.4478 166.1045L45.4948 166.0715L45.4948 166.0715L45.5408 166.0385L45.5408 166.0385L45.5898 166.0075L45.5898 166.0075L45.6368 165.9775L45.6368 165.9775L45.6868 165.9485L45.6868 165.9485L45.7368 165.9195L45.7368 165.9195L45.7868 165.8945L45.7868 165.8945L45.8388 165.8685L45.8388 165.8685L45.8908 165.8445L45.8908 165.8445L45.9438 165.8225L45.9438 165.8225L45.9968 165.7985L45.9968 165.7985L46.0508 165.7795L46.0508 165.7795L46.1048 165.7595L46.1048 165.7595L46.1588 165.7435L46.1588 165.7435L46.2168 165.7245L46.2168 165.7245L46.2718 165.7095L46.2718 165.7095L46.3278 165.6975L46.3278 165.6975L46.3858 165.6835L46.3858 165.6835L46.4448 165.6715L46.4448 165.6715L46.5028 165.6645L46.5028 165.6645L46.5618 165.6555L46.5618 165.6555L46.6208 165.6485L46.6208 165.6485L46.6798 165.6425L46.6798 165.6425L46.7408 165.6385L46.7408 165.6385L46.8008 165.6365L46.8008 165.6365L46.8628 165.6365L46.8628 165.6365L46.9238 165.6365L46.9238 165.6365L46.9848 165.6385L46.9848 165.6385L47.0448 165.6425L47.0448 165.6425L47.1038 165.6485L47.1038 165.6485L47.1638 165.6555L47.1638 165.6555L47.2218 165.6645L47.2218 165.6645L47.2798 165.6715L47.2798 165.6715L47.3388 165.6835L47.3388 165.6835L47.3968 165.6975L47.3968 165.6975L47.4528 165.7095L47.4528 165.7095L47.5098 165.7245L47.5098 165.7245L47.5658 165.7435L47.5658 165.7435L47.6198 165.7595L47.6198 165.7595L47.6748 165.7795L47.6748 165.7795L47.7278 165.7985L47.7278 165.7985L47.7818 165.8225L47.7818 165.8225L47.8348 165.8445L47.8348 165.8445L47.8858 165.8685L47.8858 165.8685L47.9388 165.8945L47.9388 165.8945L47.9878 165.9195L47.9878 165.9195L48.0388 165.9485L48.0388 165.9485L48.0878 165.9775L48.0878 165.9775L48.1348 166.0075L48.1348 166.0075L48.1848 166.0385L48.1848 166.0385L48.2318 166.0715L48.2318 166.0715L48.2768 166.1045L48.2768 166.1045L48.3208 166.1395L48.3208 166.1395L48.3658 166.1755L48.3658 166.1755L48.4078 166.2105L48.4078 166.2105L48.4518 166.2495L48.4518 166.2495L48.4928 166.2885L48.4928 166.2885L48.5328 166.3275L48.5328 166.3275L48.5728 166.3685L48.5728 166.3685L48.6118 166.4105L48.6118 166.4105L48.6488 166.4515L48.6488 166.4515L48.6868 166.4955L48.6868 166.4955L48.7218 166.5395L48.7218 166.5395L48.7578 166.5845L48.7578 166.5845L48.7908 166.6295L48.7908 166.6295L48.8218 166.6755L48.8218 166.6755L48.8528 166.7235L48.8528 166.7235L48.8838 166.7715L48.8838 166.7715L48.9128 166.8225L48.9128 166.8225L48.9408 166.8715L48.9408 166.8715L48.9668 166.9215L48.9668 166.9215L48.9928 166.9735L48.9928 166.9735L49.0178 167.0245L49.0178 167.0245L49.0398 167.0785L49.0398 167.0785L49.0618 167.1305L49.0618 167.1305L49.0818 167.1845L49.0818 167.1845L49.1008 167.2405L49.1008 167.2405L49.1198 167.2945L49.1198 167.2945L49.1348 167.3505L49.1348 167.3505L49.1518 167.4065L49.1518 167.4065L49.1658 167.4625L49.1658 167.4625L49.1778 167.5215L49.1778 167.5215L49.1888 167.5785L49.1888 167.5785L49.1988 167.6365L49.1988 167.6365L49.2068 167.6965L49.2068 167.6965L49.2138 167.7545L49.2138 167.7545L49.2188 167.8155L49.2188 167.8155L49.2218 167.8755L49.2218 167.8755L49.2248 167.9365L49.2248 167.9365L49.2258 167.9975L49.2258 167.9975L49.2248 168.0565L49.2248 168.0565L49.2218 168.1195L49.2218 168.1195L49.2188 168.1775L49.2188 168.1775L49.2138 168.2385L49.2138 168.2385L49.2068 168.2975L49.2068 168.2975L49.1988 168.3565L49.1988 168.3565L49.1888 168.4155L49.1888 168.4155L49.1778 168.4735L49.1778 168.4735L49.1658 168.5295L49.1658 168.5295L49.1518 168.5875L49.1518 168.5875L49.1348 168.6425L49.1348 168.6425L49.1198 168.6995L49.1198 168.6995L49.1008 168.7535L49.1008 168.7535L49.0818 168.8085L49.0818 168.8085L49.0618 168.8625L49.0618 168.8625L49.0398 168.9155L49.0398 168.9155L49.0178 168.9685L49.0178 168.9685L48.9928 169.0205L48.9928 169.0205L48.9668 169.0725L48.9668 169.0725L48.9408 169.1225L48.9408 169.1225L48.9128 169.1705L48.9128 169.1705L48.8848 169.2195L48.8848 169.2195L48.8538 169.2675L48.8538 169.2675L48.8228 169.3145L48.8228 169.3145L48.7918 169.3615L48.7918 169.3615L48.7578 169.4085L48.7578 169.4085L48.7228 169.4535L48.7228 169.4535L48.6868 169.4985L48.6868 169.4985L48.6498 169.5405L48.6498 169.5405L48.6128 169.5825L48.6128 169.5825L48.5738 169.6255L48.5738 169.6255L48.5338 169.6655L48.5338 169.6655L48.4928 169.7055L48.4928 169.7055L48.4528 169.7435L48.4528 169.7435L48.4088 169.7805L48.4088 169.7805L48.3658 169.8175L48.3658 169.8175L48.3218 169.8525L48.3218 169.8525L48.2778 169.8865L48.2778 169.8865L48.2318 169.9195L48.2318 169.9195L48.1848 169.9525L48.1848 169.9525L48.1358 169.9845L48.1358 169.9845L48.0878 170.0135L48.0878 170.0135L48.0388 170.0435L48.0388 170.0435L47.9888 170.0705L47.9888 170.0705L47.9388 170.0975L47.9388 170.0975L47.8868 170.1245L47.8868 170.1245L47.8348 170.1465L47.8348 170.1465L47.7828 170.1705L47.7828 170.1705L47.7288 170.1925L47.7288 170.1925L47.6758 170.2115L47.6758 170.2115L47.6198 170.2325L47.6198 170.2325L47.5658 170.2505L47.5658 170.2505L47.5108 170.2665L47.5108 170.2665L47.4528 170.2815L47.4528 170.2815L47.3968 170.2945L47.3968 170.2945L47.3388 170.3065L47.3388 170.3065L47.2798 170.3185L47.2798 170.3185L47.2218 170.3285L47.2218 170.3285L47.1638 170.3365L47.1638 170.3365L47.1038 170.3435L47.1038 170.3435L47.0448 170.3495L47.0448 170.3495L46.9848 170.3525L46.9848 170.3525L46.9238 170.3555L46.9238 170.3555L46.8628 170.3555z" stroke="none" fill="#FFFFFF" fill-rule="evenodd" /><g clip-path="url(#23)"></g><g clip-path="url(#24)"></g><g clip-path="url(#25)"></g><g clip-path="url(#26)"><g transform="matrix(1 0 0 1 36 774.6212)"><g transform="matrix(1 0 0 1 0 0)"><image x="0" y="0" xlink:href="img_14.png" width="23" height="24" /></g></g></g><g transform="matrix(1 0 0 1 37 776)"><g transform="matrix(1 0 0 1 0 0)"><image x="0" y="0" xlink:href="img_15.png" width="20" height="21" /></g></g><path transform="matrix(1 0 0 -1 0 841)" d="M46.6761 55.9278L45.4461 55.0728L45.4461 55.0728L45.8791 56.5058L45.8791 56.5058L44.6871 57.4128L44.6871 57.4128L46.1841 57.4418L46.1841 57.4418L46.6761 58.8568L46.6761 58.8568L47.1701 57.4418L47.1701 57.4418L48.6641 57.4128L48.6641 57.4128L47.4731 56.5058L47.4731 56.5058L47.9041 55.0728zM44.2631 55.4498L44.1811 55.4788L44.1811 55.4788L44.1031 55.5068L44.1031 55.5068L44.0251 55.5388L44.0251 55.5388L43.9511 55.5698L43.9511 55.5698L43.8771 55.6048L43.8771 55.6048L43.8081 55.6388L43.8081 55.6388L43.7391 55.6778L43.7391 55.6778L43.6741 55.7168L43.6741 55.7168L43.6091 55.7558L43.6091 55.7558L43.5461 55.7968L43.5461 55.7968L43.4881 55.8428L43.4881 55.8428L43.4271 55.8858L43.4271 55.8858L43.3731 55.9318L43.3731 55.9318L43.3191 55.9778L43.3191 55.9778L43.2651 56.0278L43.2651 56.0278L43.2151 56.0738L43.2151 56.0738L43.1671 56.1238L43.1671 56.1238L43.1171 56.1768L43.1171 56.1768L43.0721 56.2288L43.0721 56.2288L43.0281 56.2798L43.0281 56.2798L42.9851 56.3348L42.9851 56.3348L42.9461 56.3888L42.9461 56.3888L42.9071 56.4458L42.9071 56.4458L42.8701 56.5008L42.8701 56.5008L42.8331 56.5558L42.8331 56.5558L42.7991 56.6138L42.7991 56.6138L42.7661 56.6698L42.7661 56.6698L42.7361 56.7288L42.7361 56.7288L42.7051 56.7868L42.7051 56.7868L42.6751 56.8458L42.6751 56.8458L42.6231 56.9648L42.6231 56.9648L42.5761 57.0838L42.5761 57.0838L42.5301 57.2008L42.5301 57.2008L42.4911 57.3208L42.4911 57.3208L42.4591 57.4398L42.4591 57.4398L42.4291 57.5568L42.4291 57.5568L42.4021 57.6738L42.4021 57.6738L42.3791 57.7858L42.3791 57.7858L42.3591 57.8988L42.3591 57.8988L42.3421 58.0068L42.3421 58.0068L42.3291 58.1118L42.3291 58.1118L42.3201 58.2148L42.3201 58.2148L42.3111 58.3128L42.3111 58.3128L42.3051 58.4048L42.3051 58.4048L42.3011 58.4938L42.3011 58.4938L42.2981 58.5748L42.2981 58.5748L42.2981 58.6548L42.2981 58.6548L43.2511 58.6548L43.2511 58.6548L43.8901 58.6548L43.8901 58.6548L43.8901 57.7368L43.8901 57.7368L43.8901 57.6558L43.8901 57.6558L43.8921 57.5798L43.8921 57.5798L43.8971 57.4998L43.8971 57.4998L43.9011 57.4218L43.9011 57.4218L43.9081 57.3438L43.9081 57.3438L43.9141 57.2668L43.9141 57.2668L43.9251 57.1888L43.9251 57.1888L43.9361 57.1108L43.9361 57.1108L43.9601 56.9558L43.9601 56.9558L43.9881 56.8008L43.9881 56.8008L44.0221 56.6488L44.0221 56.6488L44.0611 56.4968L44.0611 56.4968L44.1071 56.3478L44.1071 56.3478L44.1551 56.1978L44.1551 56.1978L44.2071 56.0528L44.2071 56.0528L44.2651 55.9098L44.2651 55.9098L44.3261 55.7698L44.3261 55.7698L44.3931 55.6308L44.3931 55.6308L44.4621 55.4958L44.4621 55.4958L44.5361 55.3658zM49.4611 57.7368L49.4611 58.6548L49.4611 58.6548L50.1001 58.6548L50.1001 58.6548L51.0541 58.6548L51.0541 58.6548L51.0541 58.5768L51.0541 58.5768L51.0511 58.4938L51.0511 58.4938L51.0471 58.4048L51.0471 58.4048L51.0401 58.3128L51.0401 58.3128L51.0321 58.2148L51.0321 58.2148L51.0211 58.1128L51.0211 58.1128L51.0081 58.0088L51.0081 58.0088L50.9931 57.8988L50.9931 57.8988L50.9711 57.7878L50.9711 57.7878L50.9471 57.6758L50.9471 57.6758L50.9211 57.5588L50.9211 57.5588L50.8931 57.4418L50.8931 57.4418L50.8591 57.3218L50.8591 57.3218L50.8171 57.2028L50.8171 57.2028L50.7741 57.0858L50.7741 57.0858L50.7261 56.9668L50.7261 56.9668L50.6721 56.8478L50.6721 56.8478L50.6441 56.7918L50.6441 56.7918L50.6141 56.7318L50.6141 56.7318L50.5831 56.6748L50.5831 56.6748L50.5511 56.6178L50.5511 56.6178L50.5141 56.5598L50.5141 56.5598L50.4791 56.5038L50.4791 56.5038L50.4431 56.4488L50.4431 56.4488L50.4041 56.3908L50.4041 56.3908L50.3631 56.3388L50.3631 56.3388L50.3191 56.2818L50.3191 56.2818L50.2761 56.2308L50.2761 56.2308L50.2331 56.1788L50.2331 56.1788L50.1831 56.1268L50.1831 56.1268L50.1351 56.0768L50.1351 56.0768L50.0851 56.0288L50.0851 56.0288L50.0311 55.9798L50.0311 55.9798L49.9771 55.9338L49.9771 55.9338L49.9211 55.8888L49.9211 55.8888L49.8621 55.8448L49.8621 55.8448L49.8041 55.7998L49.8041 55.7998L49.7391 55.7578L49.7391 55.7578L49.6761 55.7198L49.6761 55.7198L49.6111 55.6808L49.6111 55.6808L49.5411 55.6418L49.5411 55.6418L49.4731 55.6048L49.4731 55.6048L49.3991 55.5718L49.3991 55.5718L49.3251 55.5388L49.3251 55.5388L49.2471 55.5068L49.2471 55.5068L49.1711 55.4788L49.1711 55.4788L49.0891 55.4498L49.0891 55.4498L48.8141 55.3638L48.8141 55.3638L48.8891 55.4958L48.8891 55.4958L48.9571 55.6308L48.9571 55.6308L49.0241 55.7668L49.0241 55.7668L49.0841 55.9078L49.0841 55.9078L49.1451 56.0508L49.1451 56.0508L49.1971 56.1978L49.1971 56.1978L49.2451 56.3458L49.2451 56.3458L49.2881 56.4948L49.2881 56.4948L49.3291 56.6468L49.3291 56.6468L49.3641 56.8008L49.3641 56.8008L49.3921 56.9538L49.3921 56.9538L49.4161 57.1108L49.4161 57.1108L49.4271 57.1888L49.4271 57.1888L49.4351 57.2668L49.4351 57.2668L49.4421 57.3438L49.4421 57.3438L49.4511 57.4218L49.4511 57.4218L49.4551 57.4998L49.4551 57.4998L49.4591 57.5798L49.4591 57.5798L49.4611 57.6558zM48.4521 54.8418L48.6081 54.8848L48.6081 54.8848L48.7851 54.9418L48.7851 54.9418L48.9851 55.0018L48.9851 55.0018L49.2101 55.0728L49.2101 55.0728L49.3271 55.1128L49.3271 55.1128L49.4401 55.1558L49.4401 55.1558L49.5501 55.2008L49.5501 55.2008L49.6541 55.2508L49.6541 55.2508L49.7541 55.3038L49.7541 55.3038L49.8531 55.3578L49.8531 55.3578L49.9471 55.4178L49.9471 55.4178L50.0351 55.4768L50.0351 55.4768L50.1241 55.5418L50.1241 55.5418L50.2041 55.6068L50.2041 55.6068L50.2851 55.6718L50.2851 55.6718L50.3601 55.7428L50.3601 55.7428L50.4341 55.8128L50.4341 55.8128L50.5011 55.8888L50.5011 55.8888L50.5681 55.9618L50.5681 55.9618L50.6311 56.0378L50.6311 56.0378L50.6921 56.1158L50.6921 56.1158L50.7481 56.1958L50.7481 56.1958L50.8021 56.2738L50.8021 56.2738L50.8541 56.3568L50.8541 56.3568L50.9041 56.4388L50.9041 56.4388L50.9471 56.5238L50.9471 56.5238L50.9931 56.6078L50.9931 56.6078L51.0341 56.6898L51.0341 56.6898L51.0711 56.7748L51.0711 56.7748L51.1081 56.8588L51.1081 56.8588L51.1421 56.9458L51.1421 56.9458L51.1731 57.0298L51.1731 57.0298L51.2031 57.1138L51.2031 57.1138L51.2291 57.1988L51.2291 57.1988L51.2551 57.2828L51.2551 57.2828L51.2771 57.3678L51.2771 57.3678L51.3011 57.4498L51.3011 57.4498L51.3201 57.5348L51.3201 57.5348L51.3371 57.6148L51.3371 57.6148L51.3541 57.6968L51.3541 57.6968L51.3811 57.8558L51.3811 57.8558L51.4021 58.0088L51.4021 58.0088L51.4201 58.1548L51.4201 58.1548L51.4321 58.2928L51.4321 58.2928L51.4411 58.4228L51.4411 58.4228L51.4461 58.5438L51.4461 58.5438L51.4501 58.6548L51.4501 58.6548L51.4501 58.7548L51.4501 58.7548L51.4501 58.8408L51.4501 58.8408L51.4461 58.9148L51.4461 58.9148L51.4391 59.0148L51.4391 59.0148L51.4371 59.0538L51.4371 59.0538L50.1001 59.0538L50.1001 59.0538L49.4611 59.0538L49.4611 59.0538L49.4611 59.4498L49.4611 59.4498L43.8901 59.4498L43.8901 59.4498L43.8901 59.0538L43.8901 59.0538L43.2511 59.0538L43.2511 59.0538L41.9131 59.0538L41.9131 59.0538L41.9101 59.0148L41.9101 59.0148L41.9041 58.9148L41.9041 58.9148L41.9021 58.8388L41.9021 58.8388L41.9001 58.7548L41.9001 58.7548L41.9021 58.6548L41.9021 58.6548L41.9041 58.5418L41.9041 58.5418L41.9091 58.4208L41.9091 58.4208L41.9171 58.2908L41.9171 58.2908L41.9301 58.1528L41.9301 58.1528L41.9481 58.0048L41.9481 58.0048L41.9691 57.8538L41.9691 57.8538L41.9971 57.6938L41.9971 57.6938L42.0131 57.6128L42.0131 57.6128L42.0321 57.5298L42.0321 57.5298L42.0491 57.4478L42.0491 57.4478L42.0711 57.3658L42.0711 57.3658L42.0971 57.2798L42.0971 57.2798L42.1211 57.1948L42.1211 57.1948L42.1491 57.1108L42.1491 57.1108L42.1771 57.0238L42.1771 57.0238L42.2071 56.9418L42.2071 56.9418L42.2441 56.8548L42.2441 56.8548L42.2791 56.7698L42.2791 56.7698L42.3181 56.6858L42.3181 56.6858L42.3571 56.6008L42.3571 56.6008L42.4021 56.5168L42.4021 56.5168L42.4481 56.4348L42.4481 56.4348L42.4951 56.3518L42.4951 56.3518L42.5481 56.2698L42.5481 56.2698L42.6011 56.1918L42.6011 56.1918L42.6581 56.1118L42.6581 56.1118L42.7191 56.0328L42.7191 56.0328L42.7821 55.9578L42.7821 55.9578L42.8481 55.8838L42.8481 55.8838L42.9181 55.8078L42.9181 55.8078L42.9901 55.7378L42.9901 55.7378L43.0651 55.6668L43.0651 55.6668L43.1431 55.6028L43.1431 55.6028L43.2271 55.5368L43.2271 55.5368L43.3141 55.4748L43.3141 55.4748L43.4031 55.4138L43.4031 55.4138L43.4981 55.3558L43.4981 55.3558L43.5941 55.3008L43.5941 55.3008L43.6961 55.2488L43.6961 55.2488L43.8021 55.1988L43.8021 55.1988L43.9101 55.1538L43.9101 55.1538L44.0251 55.1128L44.0251 55.1128L44.1411 55.0728L44.1411 55.0728L44.3631 55.0018L44.3631 55.0018L44.5641 54.9438L44.5641 54.9438L44.7401 54.8898L44.7401 54.8898L44.8981 54.8458L44.8981 54.8458L44.9691 54.7618L44.9691 54.7618L45.0451 54.6768L45.0451 54.6768L45.1231 54.5948L45.1231 54.5948L45.2031 54.5218L45.2031 54.5218L45.2831 54.4468L45.2831 54.4468L45.3661 54.3798L45.3661 54.3798L45.4501 54.3158L45.4501 54.3158L45.5361 54.2548L45.5361 54.2548L45.6251 54.1978L45.6251 54.1978L45.7141 54.1448L45.7141 54.1448L45.8051 54.0968L45.8051 54.0968L45.8961 54.0558L45.8961 54.0558L45.9891 54.0168L45.9891 54.0168L46.0871 53.9798L46.0871 53.9798L46.1801 53.9508L46.1801 53.9508L46.2771 53.9278L46.2771 53.9278L46.2771 51.0778L46.2771 51.0778L46.1521 51.0708L46.1521 51.0708L46.0281 51.0598L46.0281 51.0598L45.9071 51.0438L45.9071 51.0438L45.7881 51.0288L45.7881 51.0288L45.6711 51.0118L45.6711 51.0118L45.5561 50.9918L45.5561 50.9918L45.4441 50.9678L45.4441 50.9678L45.3371 50.9448L45.3371 50.9448L45.2291 50.9158L45.2291 50.9158L45.1251 50.8898L45.1251 50.8898L45.0281 50.8598L45.0281 50.8598L44.9301 50.8268L44.9301 50.8268L44.8351 50.7948L44.8351 50.7948L44.7461 50.7578L44.7461 50.7578L44.6601 50.7208L44.6601 50.7208L44.5791 50.6848L44.5791 50.6848L44.4991 50.6438L44.4991 50.6438L44.4261 50.5998L44.4261 50.5998L44.3561 50.5588L44.3561 50.5588L44.2911 50.5158L44.2911 50.5158L44.2301 50.4678L44.2301 50.4678L44.1721 50.4218L44.1721 50.4218L44.1221 50.3738L44.1221 50.3738L44.0751 50.3268L44.0751 50.3268L44.0311 50.2748L44.0311 50.2748L43.9961 50.2228L43.9961 50.2228L43.9641 50.1728L43.9641 50.1728L43.9511 50.1448L43.9511 50.1448L43.9381 50.1188L43.9381 50.1188L43.9271 50.0908L43.9271 50.0908L43.9161 50.0648L43.9161 50.0648L43.9081 50.0388L43.9081 50.0388L43.9011 50.0088L43.9011 50.0088L43.8971 49.9828L43.8971 49.9828L43.8921 49.9538L43.8921 49.9538L43.8901 49.9258L43.8901 49.9258L43.8901 49.9008L43.8901 49.9008L49.4611 49.9008L49.4611 49.9008L49.4611 49.9258L49.4611 49.9258L49.4591 49.9538L49.4591 49.9538L49.4551 49.9828L49.4551 49.9828L49.4511 50.0088L49.4511 50.0088L49.4421 50.0388L49.4421 50.0388L49.4331 50.0648L49.4331 50.0648L49.4251 50.0908L49.4251 50.0908L49.4141 50.1188L49.4141 50.1188L49.4011 50.1448L49.4011 50.1448L49.3881 50.1728L49.3881 50.1728L49.3571 50.2228L49.3571 50.2228L49.3211 50.2748L49.3211 50.2748L49.2771 50.3268L49.2771 50.3268L49.2301 50.3738L49.2301 50.3738L49.1801 50.4218L49.1801 50.4218L49.1211 50.4678L49.1211 50.4678L49.0611 50.5158L49.0611 50.5158L48.9961 50.5588L48.9961 50.5588L48.9271 50.5998L48.9271 50.5998L48.8531 50.6438L48.8531 50.6438L48.7731 50.6848L48.7731 50.6848L48.6931 50.7208L48.6931 50.7208L48.6061 50.7578L48.6061 50.7578L48.5151 50.7948L48.5151 50.7948L48.4221 50.8268L48.4221 50.8268L48.3241 50.8598L48.3241 50.8598L48.2271 50.8898L48.2271 50.8898L48.1231 50.9158L48.1231 50.9158L48.0151 50.9448L48.0151 50.9448L47.9061 50.9678L47.9061 50.9678L47.7961 50.9918L47.7961 50.9918L47.6811 51.0118L47.6811 51.0118L47.5641 51.0288L47.5641 51.0288L47.4431 51.0438L47.4431 51.0438L47.3241 51.0598L47.3241 51.0598L47.2001 51.0708L47.2001 51.0708L47.0751 51.0778L47.0751 51.0778L47.0751 53.9278L47.0751 53.9278L47.1721 53.9508L47.1721 53.9508L47.2651 53.9798L47.2651 53.9798L47.3601 54.0168L47.3601 54.0168L47.4561 54.0528L47.4561 54.0528L47.5471 54.0968L47.5471 54.0968L47.6381 54.1448L47.6381 54.1448L47.7241 54.1958L47.7241 54.1958L47.8131 54.2528L47.8131 54.2528L47.8981 54.3158L47.8981 54.3158L47.9841 54.3778L47.9841 54.3778L48.0641 54.4458L48.0641 54.4458L48.1471 54.5188L48.1471 54.5188L48.2271 54.5928L48.2271 54.5928L48.3031 54.6728L48.3031 54.6728L48.3811 54.7548z" stroke="none" fill="#FFFFFF" fill-rule="evenodd" /><g transform="matrix(0.1815981 0 0 0.1815141 480.3 44.75)"><g transform="matrix(1 0 0 1 0 0)"><image x="0" y="0" xlink:href="img_16.png" width="413" height="568" /></g></g><path transform="matrix(1 0 0 -1 0 841)" d="M479.1748 796.25L480.2998 797.375L480.2998 797.375L480.2998 692.025L480.2998 692.025L479.1748 693.15L479.1748 693.15L556.4248 693.15L556.4248 693.15L555.2998 692.025L555.2998 692.025L555.2998 797.375L555.2998 797.375L556.4248 796.25zM556.4248 798.5L556.6448 798.479L556.6448 798.479L556.8558 798.415L556.8558 798.415L557.0498 798.311L557.0498 798.311L557.2208 798.17L557.2208 798.17L557.3608 798L557.3608 798L557.4648 797.806L557.4648 797.806L557.5288 797.595L557.5288 797.595L557.5498 797.375L557.5498 797.375L557.5498 692.025L557.5498 692.025L557.5288 691.806L557.5288 691.806L557.4648 691.595L557.4648 691.595L557.3608 691.4L557.3608 691.4L557.2208 691.229L557.2208 691.229L557.0498 691.09L557.0498 691.09L556.8558 690.985L556.8558 690.985L556.6448 690.921L556.6448 690.921L556.4248 690.9L556.4248 690.9L479.1748 690.9L479.1748 690.9L478.9548 690.921L478.9548 690.921L478.7438 690.985L478.7438 690.985L478.5498 691.09L478.5498 691.09L478.3798 691.229L478.3798 691.229L478.2388 691.4L478.2388 691.4L478.1358 691.595L478.1358 691.595L478.0708 691.806L478.0708 691.806L478.0498 692.025L478.0498 692.025L478.0498 797.375L478.0498 797.375L478.0708 797.595L478.0708 797.595L478.1358 797.806L478.1358 797.806L478.2388 798L478.2388 798L478.3798 798.17L478.3798 798.17L478.5498 798.311L478.5498 798.311L478.7438 798.415L478.7438 798.415L478.9548 798.479L478.9548 798.479L479.1748 798.5z" stroke="none" fill="#FFFFFF" fill-rule="winding" /><path transform="matrix(1 0 0 -1 0 841)" d="M116.709 708.962L90.216 708.962L90.216 708.962L90.216 719.606L90.216 719.606L116.709 719.606z" stroke="none" fill="#FFFFFF" fill-rule="winding" /></g></g></g></svg>